# xmcd
#
# Track frame offsets: 
#        150
#        14633
#        34796
#        53764
#        74287
#        92549
#        115402
#        135150
#        149119
#        171627
#        189524
#        208650
#        228249
#        244747
#        261515
#        275836
#
# Disc length: 3901 seconds
#
# Revision: 15
# Processed by: cddbd v1.5.2PL0 Copyright (c) Steve Scherf et al.
# Submitted via: ExactAudioCopy v1.3
#
DISCID=f70f3b10
DTITLE=松任谷由実 - 日本の恋と、ユーミンと。
DYEAR=2012
DGENRE=J-Pop
TTITLE0=やさしさに包まれたなら
TTITLE1=守ってあげたい
TTITLE2=卒業写真
TTITLE3=Hello, my friend
TTITLE4=DOWNTOWN BOY
TTITLE5=恋人がサンタクロース
TTITLE6=ダンディライオン～遅咲きのたんぽぽ
TTITLE7=ルージューの伝言
TTITLE8=Sunny day Holiday
TTITLE9=魔法のくすり
TTITLE10=acacia [アカシア]
TTITLE11=青いエアメイル
TTITLE12=時をかける少女
TTITLE13=ベルベット・イースター
TTITLE14=12月の雨
TTITLE15=A HAPPY NEW YEAR
EXTD=YEAR: 2012
EXTT0=
EXTT1=
EXTT2=
EXTT3=
EXTT4=
EXTT5=
EXTT6=
EXTT7=
EXTT8=
EXTT9=
EXTT10=
EXTT11=
EXTT12=
EXTT13=
EXTT14=
EXTT15=
PLAYORDER=
